<?xml version="1.0" encoding="UTF-8"?>
<svg width="210mm" height="297mm" version="1.1" viewBox="0 0 210 297" xmlns="http://www.w3.org/2000/svg" xmlns:cc="http://creativecommons.org/ns#" xmlns:dc="http://purl.org/dc/elements/1.1/" xmlns:rdf="http://www.w3.org/1999/02/22-rdf-syntax-ns#">
 <g aria-label="Junzhe zhao">
   <path d="m127.63 367.43c-8.0822-8.2571 10.892-26.167 11.147-15.02-2.7346 7.1045-1.6417 16.461-8.2671 21.26 4.0101 9.4646-3.0124 28.097-13.934 32.012-6.8215-5.247-20.331 7.8835-7.2349 6.192 13.955-3.6015 27.647-14.806 29.082-30.022 3.1773-11.338 5.1415-23.416 9.067-34.298 4.1673-5.3008-19.788-1.0296-22.831 4.8156-6.1331 5.2853-9.0986 24.681 2.9709 15.061z"/>
   <path d="m149.17 371.47c18.26-8.3035-1.648 20.079 3.456 28.704 6.6375 2.7272 13.167-6.113 19.469-8.92-7.2692 16.938 16.101 6.0604 18.931-2.888-7.4885 6.9088-16.145 6.6157-10.754-5.4135 0.0148-7.9937 12.851-28.951-1.6296-18.49-0.94592 10.116-8.1442 35.775-19.392 26.976-1.3505-8.7684 10.691-26.535 3.714-29.972-4.1231 3.0997-12.821 4.4748-13.794 10.004z"/>
   <path d="m201.29 398.44c1.888-7.52 3.776-15.04 5.664-22.56 6.6794-5.6871 20.031-12.616 12.866 2.6805-2.4341 7.848-9.1969 30.768 5.2305 18.788 7.6928-3.0068 15.751-14.173 2.9876-5.1752-11.73 2.0062 1.3133-19.765 1.3924-27.129 0.0559-9.8902-12.912 2.6709-18.076 4.8615-8.243 7.4141 5.071-16.857-7.6523-6.7935-7.7269 2.6069-15.445 11.051-2.988 5.088 2.1486 8.3692-3.3748 18.76-5.28 27.84-4.6224 9.3513 1.902 3.0091 5.856 2.4z"/>
   <path d="m234.21 396.71c8.5606-2.3377 29.088 12.827 37.636-3.618 8.5993-6.6883-3.9334-13.983-3.2805-4.206 3.1966 13.794-30.599 3.9468-18.516-2.736 8.392-8.1842 17.048-16.103 25.248-24.48-2.8096-0.32192-19.529-0.43945-26.448 1.92-5.458 7.2517-4.17 18.383 1.368 5.532 7.0476-1.6077 22.021-3.5943 8.9265 4.5345-8.0422 7.895-17.36 15.117-24.934 23.054z"/>
   <path d="m279.18 401.13c6.4009-0.80543 8.3382-5.4905 8.9741-11.307 2.4485-5.7911 0.85121-14.527 8.1717-16.77 10.142-9.5907 12.748-0.89617 7.7424 8.8918-3.4883 8.3325-5.7301 26.909 7.0798 14.721 8.4897-3.5972 13.618-13.058 1.44-4.152-12.124-1.5195 7.2599-25.082 0.576-31.704-7.44 0.026-25.04 19.585-18.694 3.7546 3.1733-8.554 2.2938-25.971 15.238-23.51 9.5382-1.1882 4.593-10.64-4.392-4.389-12.238 5.2902-16.157 17.934-18.114 29.954-2.6739 11.503-5.3478 23.007-8.0217 34.51z"/>
   <path d="m350.65 387.11c-4.7123 10.98-29.061 10.835-17.988-2.511 9.157-2.7205 27.114-23.108 8.664-23.397-15.534 3.4376-29.053 37.314-8.7465 40.12 6.4529-2.0893 17.359-6.8059 18.07-14.212zm-20.736-4.032c-2.1543-9.2764 15.599-28.308 11.502-9.4153-2.9033 4.098-7.426 6.6477-11.502 9.4153z"/>
   <path d="m372.4 396.71c8.5606-2.3377 29.088 12.827 37.636-3.618 8.5993-6.6883-3.9334-13.983-3.2805-4.206 3.1966 13.794-30.599 3.9468-18.516-2.736 8.392-8.1842 17.048-16.103 25.248-24.48-2.8096-0.32192-19.529-0.43945-26.448 1.92-5.458 7.2517-4.17 18.383 1.368 5.532 7.0476-1.6077 22.021-3.5943 8.9265 4.5345-8.0422 7.895-17.36 15.117-24.934 23.054z"/>
   <path d="m417.37 401.13c6.4009-0.80543 8.3382-5.4905 8.9741-11.307 2.4485-5.7911 0.85121-14.527 8.1717-16.77 10.142-9.5907 12.748-0.89617 7.7424 8.8918-3.4883 8.3325-5.7301 26.909 7.0798 14.721 8.4897-3.5972 13.618-13.058 1.44-4.152-12.124-1.5195 7.2599-25.082 0.576-31.704-7.44 0.026-25.04 19.585-18.694 3.7546 3.1733-8.554 2.2938-25.971 15.238-23.51 9.5382-1.1882 4.593-10.64-4.392-4.389-12.238 5.2902-16.157 17.934-18.114 29.954-2.6739 11.503-5.3478 23.007-8.0217 34.51z"/>
   <path d="m499.59 387.79c-7.3336 7.7508-14.348 5.7524-9.168-5.316 0.5943-10.838 13.37-25.176-5.136-21.66-16.809 0.17101-24.379 18.525-24.576 33.024-0.3 22.129 27.409-15.98 19.776 5.664 1.7705 5.1884 19.872-7.7176 19.104-11.712zm-18.72 0.576c-7.9684 10.223-16.811 3.7644-11.7-7.188-1.0681-10.003 14.015-22.795 18.045-12.196-2.9074 5.8926-1.6061 14.934-6.3452 19.384z"/>
   <path d="m527.13 360.81c-16.456 1.7573-28.812 18.962-25.522 35.074 11.263 15.051 33.615-6.3626 33.622-20.862 1.8834-6.0862-0.36197-14.457-8.1-14.212zm-4.992 4.512c14.207 4.9488 1.7904 38.354-11.988 29.22-4.6235-9.6811 0.94471-26.682 11.988-29.22z"/>
  </g>
</svg>
