<?xml version="1.0" encoding="UTF-8"?>
<!-- Created with Inkscape (http://www.inkscape.org/) -->
<svg width="210mm" height="297mm" version="1.1" viewBox="0 0 210 297" xmlns="http://www.w3.org/2000/svg">
 <g transform="scale(.26458)" aria-label="Junzhe Zhao .">
  <path d="m-48.202 463.87q0.02267 8e-3 0.02267 0.028t-0.024 0.0253q-0.02267 0-0.04533 0-0.02267 0-0.04533 1e-3 -0.01733 0.0173-0.02533 0.0693-8e-3 0.0507-0.01333 0.10667-0.016 0.152-0.04533 0.20267-0.0093 0.016-0.03467 0.028-0.02533 0.0133-0.05467 0.0187-0.07333 0.012-0.096-0.0187-8e-3 -0.024 8e-3 -0.0373t0.03333 4e-3q0.012 1e-3 0.024-1e-3 0.01333-1e-3 0.028-4e-3 0.01467-1e-3 0.02533-4e-3 8e-3 -3e-3 0.016-0.0107 0.024-0.0227 0.03467-0.11601 0.01867-0.184 0.03867-0.236-0.03867 1e-3 -0.07867 1e-3h-0.07867q-0.01467-1e-3 -0.02133-9e-3 -0.0067-9e-3 -0.0067-0.0187 0.0013-0.0227 0.02933-0.0253z"/>
  <path d="m-46.148 464.03q0.012-0.024 0.036-0.0133 8e-3 4e-3 0.012 0.0147 0.0053 9e-3 -0.0027 0.0253-8e-3 0.0147-0.024 0.044-0.01467 0.0293-0.028 0.0613-0.03067 0.0787-0.01467 0.11467 0.06133 0.0187 0.11867-0.0867 0.044-0.08 0.06133-0.10267 0.01867-0.024 0.03867-0.032 0.016-3e-3 0.02933 0.0133 0.0067 0.016-0.0067 0.06-0.012 0.0427-0.01867 0.068-0.0067 0.0253-0.0093 0.044-0.0013 0.0187 0.0053 0.028 8e-3 8e-3 0.028 1e-3 0.02-8e-3 0.03867-0.0173 0.02-8e-3 0.03867-0.016 0.05333-0.024 0.07067-0.0333 0.01867-0.0107 0.02667-8e-3 8e-3 1e-3 0.01467 9e-3 0.01067 0.0173-4e-3 0.0373-0.084 0.048-0.12533 0.0653-0.09867 0.0413-0.12667 0-0.02267-0.032-0.016-0.0893-0.07467 0.112-0.14133 0.11734-0.05867 5e-3 -0.07733-0.0507-0.0093-0.0267-0.0027-0.0533 0.0067-0.028 0.0093-0.0373 0.0027-0.0107 4e-3 -0.0187 0.0027-8e-3 0.0067-0.0187 0.03067-0.0773 0.05867-0.12667z"/>
  <path d="m-43.789 464.27q-0.01733-0.0413-0.01467-0.1 4e-3 -0.06 0.0067-0.0893t-0.0013-0.048q-0.012-7e-3 -0.01333-0.0213-0.0027-0.0147 0.0067-0.0213 0.01067-7e-3 0.012-7e-3 0.02133-0.0107 0.03733 0.0107 0.02 0.044 0.0067 0.152-0.0027 0.0267-0.0027 0.048 0.06-0.092 0.12533-0.16267 0.04667-0.0493 0.092-0.052 0.02267-1e-3 0.04533-5e-3 0.024-5e-3 0.04267 5e-3 0.08 0.048 0.05733 0.15867-0.0093 0.048-0.03467 0.0907-0.04267 0.0733-0.076 0.08-0.012 3e-3 -0.024 5e-3 -0.012 4e-3 -0.02133-1e-3 -8e-3 -5e-3 -0.01067-0.0147-0.0067-0.0227 0.01733-0.032 0.024-9e-3 0.044-0.032 0.02133-0.024 0.03467-0.0533 0.01467-0.0307 0.02-0.0613 0.0053-0.032-0.0013-0.056-0.016-0.0533-0.088-0.0307-0.04133 0.012-0.07067 0.0413-0.02933 0.0293-0.05333 0.0653-0.024 0.0347-0.04667 0.072-0.02267 0.036-0.05067 0.064-0.02133 0.012-0.03867-5e-3z"/>
  <path d="m-41.348 464.11q-0.02133 0.0107-0.03467-3e-3 -0.01467-0.0147-4e-3 -0.036 0.012-0.0107 0.04267-0.0293 0.032-0.0187 0.064-0.0293 0.084-0.0293 0.092 0.032 0.0027 0.0187-8e-3 0.0373-0.01067 0.0187-0.024 0.0373-0.012 0.0173-0.02267 0.0347-0.01067 0.0173-8e-3 0.0413 0.0027 0.0227 0.02133 0.0493 0.01867 0.0267 0.02667 0.0427 0.0093 0.016 0.01067 0.02 0.0027 5e-3 0.0053 0.0107 0.14267-0.0707 0.344-0.14134 0.024-3e-3 0.03067 0.0187 0.0067 0.02-0.016 0.032-0.24 0.0827-0.34267 0.14267 0.01067 0.0867-0.06533 0.15066-0.01733 0.0147-0.04133 0.016-0.02267 1e-3 -0.04267-8e-3t-0.03067-0.0293q-0.01067-0.0187-0.0027-0.04 8e-3 -0.02 0.01733-0.0307 0.01067-0.0107 0.024-0.024 0.024-0.0267 0.08267-0.0627-0.0093-0.02-0.024-0.04-0.01333-0.02-0.02667-0.0413-0.04267-0.0747-0.0053-0.13067 0.03333-0.048 0.04133-0.072-0.01467-4e-3 -0.02133 3e-3 -0.04533 0.0133-0.08267 0.0493zm0.05067 0.36134 0.0013 0.0107q0.024 0.0107 0.048-0.024 0.01867-0.0267 0.028-0.056-0.048 0.032-0.07733 0.0693z"/>
  <path d="m-38.731 463.61q0.0053-0.024 0.02533-0.024 0.02 0 0.028 0.0227 0 0.048-0.01867 0.1-0.01867 0.0507-0.03467 0.10933-0.01467 0.0587-0.02933 0.12933-0.01467 0.0693-0.03333 0.14 0.03467-0.056 0.07733-0.0813 0.02533-0.0147 0.04-0.0147 0.016 0 0.04133 8e-3 0.06933 0.0187 0.05333 0.12534-0.0053 0.0427-0.02267 0.084-0.01733 0.0413-0.03333 0.0613-0.02133 0.0107-0.036-3e-3 -0.01333-0.0147-0.0027-0.036 0.03067-0.036 0.03867-0.12666 4e-3 -0.0533-0.01733-0.0613-0.012-5e-3 -0.04 0.0133-0.028 0.0187-0.04933 0.0533-0.02133 0.0333-0.04 0.0707-0.01867 0.0373-0.03867 0.072-0.01867 0.0333-0.04667 0.056-0.01867 0.0107-0.03333 0-0.01333-9e-3 -0.0093-0.0307 0.0093-0.0307 0.02133-0.0587 0.01333-0.028 0.02533-0.0667t0.02267-0.0867q0.012-0.048 0.02533-0.10133 0.01333-0.0547 0.02667-0.11467 0.01333-0.06 0.02533-0.104 0.012-0.0453 0.02267-0.0747 0.012-0.0307 0.012-0.0613z"/>
  <path d="m-36.296 463.96q0.01467 0.0107 0.012 0.0387-0.0013 0.0267-0.024 0.0507-0.02133 0.024-0.052 0.0387-0.04267 0.02-0.12933 0.032-0.072 0.0813-0.036 0.112 0.03333 0.0307 0.148 0.0147 0.08267-0.0107 0.152-0.0333 0.024-3e-3 0.03067 0.0187 0.0067 0.02-0.016 0.032-0.16 0.0453-0.268 0.036-0.068-7e-3 -0.09067-0.0387-0.02133-0.032-0.012-0.076 0.0093-0.044 0.04267-0.0907 0.03333-0.0467 0.076-0.0827t0.088-0.052q0.04533-0.0173 0.07867 0zm-0.048 0.0467q-0.024 5e-3 -0.07867 0.0493 0.05333-0.016 0.07867-0.0493z"/>
  <path d="m-31.701 464.28-0.0067 1e-3q-0.016 0.0147-0.03867 0.028-0.02133 0.0107-0.036-4e-3 -0.01333-0.0133-4e-3 -0.0307 0.01333-0.0253 0.05467-0.0413 0.05467-0.0467 0.08933-0.084 0.06667-0.0747 0.08667-0.10267 0.05333-0.0787 0.06-0.116 0.0013-8e-3 0.0027-0.0147-0.13867-9e-3 -0.26933 0.012-0.076 0.0133-0.09067-8e-3 -0.01333-0.016 0.0013-0.0347 0.0067-8e-3 0.02133-9e-3 0.04533 7e-3 0.10267 0 0.05733-8e-3 0.09067-0.012 0.03333-5e-3 0.06667-5e-3 0.03333-1e-3 0.064-1e-3 0.032 0 0.05067 9e-3 0.04267 0.0213 4e-3 0.1-0.01067 0.0227-0.016 0.0333-4e-3 0.0107-8e-3 0.0187t-0.01067 0.0187l-0.02 0.032q-0.028 0.044-0.06133 0.0787t-0.044 0.0467q-0.0093 0.0107-0.02 0.0213 0.04-1e-3 0.08133-1e-3 0.04133-1e-3 0.08267-1e-3 0.09867-1e-3 0.16267-0.0187 0.01067-0.0107 0.024-7e-3 0.01467 3e-3 0.02133 0.0213v4e-3q-0.0027 0.02-0.01733 0.028-0.06267 0.02-0.132 0.0227-0.06933 1e-3 -0.16267 1e-3 -0.092 0-0.12933 0.0147z"/>
  <path d="m-29.181 463.61q0.0053-0.024 0.02533-0.024 0.02 0 0.028 0.0227 0 0.048-0.01867 0.1-0.01867 0.0507-0.03467 0.10933-0.01467 0.0587-0.02933 0.12933-0.01467 0.0693-0.03333 0.14 0.03467-0.056 0.07733-0.0813 0.02533-0.0147 0.04-0.0147 0.016 0 0.04133 8e-3 0.06933 0.0187 0.05333 0.12534-0.0053 0.0427-0.02267 0.084-0.01733 0.0413-0.03333 0.0613-0.02133 0.0107-0.036-3e-3 -0.01333-0.0147-0.0027-0.036 0.03067-0.036 0.03867-0.12666 4e-3 -0.0533-0.01733-0.0613-0.012-5e-3 -0.04 0.0133-0.028 0.0187-0.04933 0.0533-0.02133 0.0333-0.04 0.0707-0.01867 0.0373-0.03867 0.072-0.01867 0.0333-0.04667 0.056-0.01867 0.0107-0.03333 0-0.01333-9e-3 -0.0093-0.0307 0.0093-0.0307 0.02133-0.0587 0.01333-0.028 0.02533-0.0667t0.02267-0.0867q0.012-0.048 0.02533-0.10133 0.01333-0.0547 0.02667-0.11467 0.01333-0.06 0.02533-0.104 0.012-0.0453 0.02267-0.0747 0.012-0.0307 0.012-0.0613z"/>
  <path d="m-27.026 464.16q0.01067-0.0213 0.02533-0.04 0.016-0.0187 0.05467-0.056 0.04-0.0373 0.072-0.0573 0.03333-0.02 0.04933-0.0213 0.016-1e-3 0.02667 5e-3 0.02267 0.0147 0.01333 0.044 0.0093-7e-3 0.01733-0.012 8e-3 -7e-3 0.02-8e-3 0.01333-3e-3 0.02267 7e-3 0.0093 8e-3 0.0067 0.024-0.01333 0.0493-0.028 0.0893-0.01333 0.04-8e-3 0.0653 0.0053 0.0253 0.03867 0.032 0.03333 5e-3 0.116-0.0133 0.01333-1e-3 0.02133 5e-3 8e-3 7e-3 0.0093 0.016t-0.0053 0.0187q-0.0053 9e-3 -0.024 0.0147-0.048 0.012-0.096 0.012-0.04667 1e-3 -0.072-0.0133-0.024-0.0133-0.03467-0.036-0.016-0.036 4e-3 -0.11067-0.02 0.02-0.048 0.0507t-0.04 0.0427q-0.012 0.0107-0.02267 0.02-0.0093 8e-3 -0.03333 0.0147-0.02267 7e-3 -0.04533 5e-3 -0.02133-1e-3 -0.03733-0.0147-0.016-0.0133-0.01467-0.0373 0.0013-0.0253 0.012-0.0467zm0.18267-0.0813q-0.01467-1e-3 -0.02267-0.012-0.03333 0.0267-0.06933 0.0613-0.036 0.0333-0.048 0.0747 0.05333 0.0147 0.12267-0.0813 0.01867-0.0267 0.03867-0.048-8e-3 3e-3 -0.02133 5e-3z"/>
  <path d="m-24.687 464.15q8e-3 -0.0213 0.01867-0.048 8e-3 -0.028 0.02133-0.0507 0.03067-0.06 0.064-0.0853l4e-3 -8e-3q0.07067-0.0613 0.14-0.0453 0.032 8e-3 0.056 0.0307 0.024 0.0213 0.03467 0.052 0.02667 0.072-0.01867 0.15333-0.02933 0.0547-0.09867 0.088-0.05067 0.0253-0.12933 0.0347-0.044 7e-3 -0.076-0.036-0.032-0.0427-0.016-0.0853zm0.224 0.0227q0.03067-0.0213 0.05067-0.0493 0.02-0.0293 0.02-0.0747 0-0.0453-0.024-0.068t-0.05867-0.0173q-0.0053 0.016-0.02267 0.02-0.05067 7e-3 -0.092 0.0707-0.036 0.056-0.04533 0.108-0.0027 0.0107 0.0013 0.0213 0.0053 9e-3 8e-3 0.02 8e-3 3e-3 0.016 8e-3 8e-3 4e-3 0.02667 5e-3 0.02 1e-3 0.05467-0.0107 0.036-0.012 0.06533-0.0333z"/>
  <path d="m-19.912 464.28q-0.02 0.0107-0.04133-0.0107-0.016-9e-3 -0.02133-0.0307-0.0053-0.0227-0.0013-0.044 0.0053-0.0227 0.02133-0.0373 0.016-0.0147 0.03733-0.0107 0.02267 3e-3 0.03067 0.012 0.0067 0 0.01867 8e-3 0.012 8e-3 0.01333 0.0253 0.0013 0.016-0.0067 0.0347-0.016 0.04-0.05067 0.0533z"/>
 </g>
</svg>
